<mxfile host="65bd71144e" scale="7" border="0">
    <diagram id="691b31df-7cfc-d80e-552c-7aa9f8c0b5f7" name="Page-1">
        <mxGraphModel dx="1100" dy="863" grid="1" gridSize="10" guides="1" tooltips="1" connect="1" arrows="1" fold="1" page="1" pageScale="1" pageWidth="826" pageHeight="1169" background="#ffffff" math="0" shadow="0">
            <root>
                <mxCell id="0"/>
                <mxCell id="1" parent="0"/>
                <mxCell id="93" value="" style="edgeStyle=none;html=1;fontColor=#000000;" parent="1" source="95" target="98" edge="1">
                    <mxGeometry relative="1" as="geometry"/>
                </mxCell>
                <mxCell id="94" value="" style="edgeStyle=none;html=1;fontColor=#000000;strokeColor=#000000;" parent="1" source="95" target="114" edge="1">
                    <mxGeometry relative="1" as="geometry"/>
                </mxCell>
                <mxCell id="95" value="&lt;font color=&quot;#000000&quot;&gt;&amp;nbsp; &amp;nbsp; CNN&lt;span style=&quot;white-space: pre&quot;&gt;&#9;&lt;/span&gt;&lt;/font&gt;" style="rounded=1;whiteSpace=wrap;html=1;fillColor=none;strokeColor=#000000;align=center;" parent="1" vertex="1">
                    <mxGeometry x="110" y="710" width="60" height="30" as="geometry"/>
                </mxCell>
                <mxCell id="96" value="" style="edgeStyle=none;html=1;fontColor=#000000;" parent="1" source="98" target="101" edge="1">
                    <mxGeometry relative="1" as="geometry"/>
                </mxCell>
                <mxCell id="97" value="" style="edgeStyle=none;html=1;fontColor=#000000;strokeColor=#000000;" parent="1" source="98" target="116" edge="1">
                    <mxGeometry relative="1" as="geometry"/>
                </mxCell>
                <mxCell id="98" value="&lt;font color=&quot;#000000&quot;&gt;&amp;nbsp; &amp;nbsp; CNN&lt;span style=&quot;white-space: pre&quot;&gt;&#9;&lt;/span&gt;&lt;/font&gt;" style="rounded=1;whiteSpace=wrap;html=1;fillColor=none;strokeColor=#000000;align=center;" parent="1" vertex="1">
                    <mxGeometry x="203" y="710" width="60" height="30" as="geometry"/>
                </mxCell>
                <mxCell id="99" value="" style="edgeStyle=none;html=1;fontColor=#000000;" parent="1" source="101" target="104" edge="1">
                    <mxGeometry relative="1" as="geometry"/>
                </mxCell>
                <mxCell id="100" value="" style="edgeStyle=none;html=1;fontColor=#000000;strokeColor=#000000;" parent="1" source="101" target="118" edge="1">
                    <mxGeometry relative="1" as="geometry"/>
                </mxCell>
                <mxCell id="101" value="&lt;font color=&quot;#000000&quot;&gt;&amp;nbsp; &amp;nbsp; CNN&lt;span style=&quot;white-space: pre&quot;&gt;&#9;&lt;/span&gt;&lt;/font&gt;" style="rounded=1;whiteSpace=wrap;html=1;fillColor=none;strokeColor=#000000;align=center;" parent="1" vertex="1">
                    <mxGeometry x="297" y="710" width="60" height="30" as="geometry"/>
                </mxCell>
                <mxCell id="102" value="" style="edgeStyle=none;html=1;fontColor=#000000;" parent="1" source="104" target="107" edge="1">
                    <mxGeometry relative="1" as="geometry"/>
                </mxCell>
                <mxCell id="103" value="" style="edgeStyle=none;html=1;fontColor=#000000;strokeColor=#000000;" parent="1" source="104" target="120" edge="1">
                    <mxGeometry relative="1" as="geometry"/>
                </mxCell>
                <mxCell id="104" value="&lt;font color=&quot;#000000&quot;&gt;&amp;nbsp; &amp;nbsp; CNN&lt;span style=&quot;white-space: pre&quot;&gt;&#9;&lt;/span&gt;&lt;/font&gt;" style="rounded=1;whiteSpace=wrap;html=1;fillColor=none;strokeColor=#000000;align=center;" parent="1" vertex="1">
                    <mxGeometry x="390" y="710" width="60" height="30" as="geometry"/>
                </mxCell>
                <mxCell id="105" value="" style="edgeStyle=none;html=1;fontColor=#000000;" parent="1" source="107" target="110" edge="1">
                    <mxGeometry relative="1" as="geometry"/>
                </mxCell>
                <mxCell id="106" value="" style="edgeStyle=none;html=1;fontColor=#000000;strokeColor=#000000;" parent="1" source="107" target="122" edge="1">
                    <mxGeometry relative="1" as="geometry"/>
                </mxCell>
                <mxCell id="107" value="&lt;font color=&quot;#000000&quot;&gt;&amp;nbsp; &amp;nbsp; CNN&lt;span style=&quot;white-space: pre&quot;&gt;&#9;&lt;/span&gt;&lt;/font&gt;" style="rounded=1;whiteSpace=wrap;html=1;fillColor=none;strokeColor=#000000;align=center;" parent="1" vertex="1">
                    <mxGeometry x="483" y="710" width="60" height="30" as="geometry"/>
                </mxCell>
                <mxCell id="108" value="" style="edgeStyle=none;html=1;fontColor=#000000;" parent="1" source="110" target="112" edge="1">
                    <mxGeometry relative="1" as="geometry"/>
                </mxCell>
                <mxCell id="109" value="" style="edgeStyle=none;html=1;fontColor=#000000;strokeColor=#000000;" parent="1" source="110" target="124" edge="1">
                    <mxGeometry relative="1" as="geometry"/>
                </mxCell>
                <mxCell id="110" value="&lt;font color=&quot;#000000&quot;&gt;&amp;nbsp; &amp;nbsp; CNN&lt;span style=&quot;white-space: pre&quot;&gt;&#9;&lt;/span&gt;&lt;/font&gt;" style="rounded=1;whiteSpace=wrap;html=1;fillColor=none;strokeColor=#000000;align=center;" parent="1" vertex="1">
                    <mxGeometry x="577" y="710" width="60" height="30" as="geometry"/>
                </mxCell>
                <mxCell id="111" value="" style="edgeStyle=none;html=1;fontColor=#000000;strokeColor=#000000;" parent="1" source="112" target="126" edge="1">
                    <mxGeometry relative="1" as="geometry"/>
                </mxCell>
                <mxCell id="112" value="&lt;font color=&quot;#000000&quot;&gt;&amp;nbsp; &amp;nbsp; CNN&lt;span style=&quot;white-space: pre&quot;&gt;&#9;&lt;/span&gt;&lt;/font&gt;" style="rounded=1;whiteSpace=wrap;html=1;fillColor=none;strokeColor=#000000;align=center;" parent="1" vertex="1">
                    <mxGeometry x="670" y="710" width="60" height="30" as="geometry"/>
                </mxCell>
                <mxCell id="113" value="" style="edgeStyle=none;html=1;fontColor=#000000;strokeColor=#000000;" parent="1" source="114" target="127" edge="1">
                    <mxGeometry relative="1" as="geometry"/>
                </mxCell>
                <mxCell id="114" value="&lt;font color=&quot;#000000&quot;&gt;&amp;nbsp; &amp;nbsp; CNN&lt;span style=&quot;white-space: pre&quot;&gt;&#9;&lt;/span&gt;&lt;/font&gt;" style="rounded=1;whiteSpace=wrap;html=1;fillColor=none;strokeColor=#000000;align=center;" parent="1" vertex="1">
                    <mxGeometry x="110" y="650" width="60" height="30" as="geometry"/>
                </mxCell>
                <mxCell id="115" value="" style="edgeStyle=none;html=1;fontColor=#000000;strokeColor=#000000;" parent="1" source="116" target="128" edge="1">
                    <mxGeometry relative="1" as="geometry"/>
                </mxCell>
                <mxCell id="116" value="&lt;font color=&quot;#000000&quot;&gt;&amp;nbsp; &amp;nbsp; CNN&lt;span style=&quot;white-space: pre&quot;&gt;&#9;&lt;/span&gt;&lt;/font&gt;" style="rounded=1;whiteSpace=wrap;html=1;fillColor=none;strokeColor=#000000;align=center;" parent="1" vertex="1">
                    <mxGeometry x="203" y="650" width="60" height="30" as="geometry"/>
                </mxCell>
                <mxCell id="117" value="" style="edgeStyle=none;html=1;fontColor=#000000;strokeColor=#000000;" parent="1" source="118" target="129" edge="1">
                    <mxGeometry relative="1" as="geometry"/>
                </mxCell>
                <mxCell id="118" value="&lt;font color=&quot;#000000&quot;&gt;&amp;nbsp; &amp;nbsp; CNN&lt;span style=&quot;white-space: pre&quot;&gt;&#9;&lt;/span&gt;&lt;/font&gt;" style="rounded=1;whiteSpace=wrap;html=1;fillColor=none;strokeColor=#000000;align=center;" parent="1" vertex="1">
                    <mxGeometry x="297" y="650" width="60" height="30" as="geometry"/>
                </mxCell>
                <mxCell id="119" value="" style="edgeStyle=none;html=1;fontColor=#000000;strokeColor=#000000;" parent="1" source="120" target="130" edge="1">
                    <mxGeometry relative="1" as="geometry"/>
                </mxCell>
                <mxCell id="120" value="&lt;font color=&quot;#000000&quot;&gt;&amp;nbsp; &amp;nbsp; CNN&lt;span style=&quot;white-space: pre&quot;&gt;&#9;&lt;/span&gt;&lt;/font&gt;" style="rounded=1;whiteSpace=wrap;html=1;fillColor=none;strokeColor=#000000;align=center;" parent="1" vertex="1">
                    <mxGeometry x="390" y="650" width="60" height="30" as="geometry"/>
                </mxCell>
                <mxCell id="121" value="" style="edgeStyle=none;html=1;fontColor=#000000;strokeColor=#000000;" parent="1" source="122" target="131" edge="1">
                    <mxGeometry relative="1" as="geometry"/>
                </mxCell>
                <mxCell id="122" value="&lt;font color=&quot;#000000&quot;&gt;&amp;nbsp; &amp;nbsp; CNN&lt;span style=&quot;white-space: pre&quot;&gt;&#9;&lt;/span&gt;&lt;/font&gt;" style="rounded=1;whiteSpace=wrap;html=1;fillColor=none;strokeColor=#000000;align=center;" parent="1" vertex="1">
                    <mxGeometry x="483" y="650" width="60" height="30" as="geometry"/>
                </mxCell>
                <mxCell id="123" value="" style="edgeStyle=none;html=1;fontColor=#000000;strokeColor=#000000;" parent="1" source="124" target="132" edge="1">
                    <mxGeometry relative="1" as="geometry"/>
                </mxCell>
                <mxCell id="124" value="&lt;font color=&quot;#000000&quot;&gt;&amp;nbsp; &amp;nbsp; CNN&lt;span style=&quot;white-space: pre&quot;&gt;&#9;&lt;/span&gt;&lt;/font&gt;" style="rounded=1;whiteSpace=wrap;html=1;fillColor=none;strokeColor=#000000;align=center;" parent="1" vertex="1">
                    <mxGeometry x="577" y="650" width="60" height="30" as="geometry"/>
                </mxCell>
                <mxCell id="125" value="" style="edgeStyle=none;html=1;fontColor=#000000;strokeColor=#000000;" parent="1" source="126" target="133" edge="1">
                    <mxGeometry relative="1" as="geometry"/>
                </mxCell>
                <mxCell id="126" value="&lt;font color=&quot;#000000&quot;&gt;&amp;nbsp; &amp;nbsp; CNN&lt;span style=&quot;white-space: pre&quot;&gt;&#9;&lt;/span&gt;&lt;/font&gt;" style="rounded=1;whiteSpace=wrap;html=1;fillColor=none;strokeColor=#000000;align=center;" parent="1" vertex="1">
                    <mxGeometry x="670" y="650" width="60" height="30" as="geometry"/>
                </mxCell>
                <mxCell id="134" style="edgeStyle=none;html=1;exitX=0.5;exitY=0;exitDx=0;exitDy=0;entryX=0.5;entryY=1;entryDx=0;entryDy=0;strokeColor=#000000;" parent="1" source="127" target="73" edge="1">
                    <mxGeometry relative="1" as="geometry">
                        <mxPoint x="140" y="555" as="targetPoint"/>
                    </mxGeometry>
                </mxCell>
                <mxCell id="127" value="&lt;font color=&quot;#000000&quot;&gt;&amp;nbsp; &amp;nbsp; CNN&lt;span style=&quot;white-space: pre&quot;&gt;&#9;&lt;/span&gt;&lt;/font&gt;" style="rounded=1;whiteSpace=wrap;html=1;fillColor=none;strokeColor=#000000;align=center;" parent="1" vertex="1">
                    <mxGeometry x="110" y="591" width="60" height="30" as="geometry"/>
                </mxCell>
                <mxCell id="135" style="edgeStyle=none;html=1;exitX=0.5;exitY=0;exitDx=0;exitDy=0;entryX=0.5;entryY=1;entryDx=0;entryDy=0;strokeColor=#000000;" parent="1" source="128" target="75" edge="1">
                    <mxGeometry relative="1" as="geometry">
                        <mxPoint x="233" y="555" as="targetPoint"/>
                    </mxGeometry>
                </mxCell>
                <mxCell id="128" value="&lt;font color=&quot;#000000&quot;&gt;&amp;nbsp; &amp;nbsp; CNN&lt;span style=&quot;white-space: pre&quot;&gt;&#9;&lt;/span&gt;&lt;/font&gt;" style="rounded=1;whiteSpace=wrap;html=1;fillColor=none;strokeColor=#000000;align=center;" parent="1" vertex="1">
                    <mxGeometry x="203" y="591" width="60" height="30" as="geometry"/>
                </mxCell>
                <mxCell id="136" style="edgeStyle=none;html=1;exitX=0.5;exitY=0;exitDx=0;exitDy=0;entryX=0.5;entryY=1;entryDx=0;entryDy=0;strokeColor=#000000;" parent="1" source="129" target="77" edge="1">
                    <mxGeometry relative="1" as="geometry">
                        <mxPoint x="327" y="555" as="targetPoint"/>
                    </mxGeometry>
                </mxCell>
                <mxCell id="129" value="&lt;font color=&quot;#000000&quot;&gt;&amp;nbsp; &amp;nbsp; CNN&lt;span style=&quot;white-space: pre&quot;&gt;&#9;&lt;/span&gt;&lt;/font&gt;" style="rounded=1;whiteSpace=wrap;html=1;fillColor=none;strokeColor=#000000;align=center;" parent="1" vertex="1">
                    <mxGeometry x="297" y="591" width="60" height="30" as="geometry"/>
                </mxCell>
                <mxCell id="137" style="edgeStyle=none;html=1;exitX=0.5;exitY=0;exitDx=0;exitDy=0;entryX=0.5;entryY=1;entryDx=0;entryDy=0;strokeColor=#000000;" parent="1" source="130" target="79" edge="1">
                    <mxGeometry relative="1" as="geometry">
                        <mxPoint x="420" y="555" as="targetPoint"/>
                    </mxGeometry>
                </mxCell>
                <mxCell id="130" value="&lt;font color=&quot;#000000&quot;&gt;&amp;nbsp; &amp;nbsp; CNN&lt;span style=&quot;white-space: pre&quot;&gt;&#9;&lt;/span&gt;&lt;/font&gt;" style="rounded=1;whiteSpace=wrap;html=1;fillColor=none;strokeColor=#000000;align=center;" parent="1" vertex="1">
                    <mxGeometry x="390" y="591" width="60" height="30" as="geometry"/>
                </mxCell>
                <mxCell id="138" style="edgeStyle=none;html=1;exitX=0.5;exitY=0;exitDx=0;exitDy=0;entryX=0.5;entryY=1;entryDx=0;entryDy=0;strokeColor=#000000;" parent="1" source="131" target="81" edge="1">
                    <mxGeometry relative="1" as="geometry">
                        <mxPoint x="513" y="555" as="targetPoint"/>
                    </mxGeometry>
                </mxCell>
                <mxCell id="131" value="&lt;font color=&quot;#000000&quot;&gt;&amp;nbsp; &amp;nbsp; CNN&lt;span style=&quot;white-space: pre&quot;&gt;&#9;&lt;/span&gt;&lt;/font&gt;" style="rounded=1;whiteSpace=wrap;html=1;fillColor=none;strokeColor=#000000;align=center;" parent="1" vertex="1">
                    <mxGeometry x="483" y="591" width="60" height="30" as="geometry"/>
                </mxCell>
                <mxCell id="139" style="edgeStyle=none;html=1;exitX=0.5;exitY=0;exitDx=0;exitDy=0;entryX=0.5;entryY=1;entryDx=0;entryDy=0;strokeColor=#000000;" parent="1" source="132" target="83" edge="1">
                    <mxGeometry relative="1" as="geometry">
                        <mxPoint x="607" y="555" as="targetPoint"/>
                    </mxGeometry>
                </mxCell>
                <mxCell id="132" value="&lt;font color=&quot;#000000&quot;&gt;&amp;nbsp; &amp;nbsp; CNN&lt;span style=&quot;white-space: pre&quot;&gt;&#9;&lt;/span&gt;&lt;/font&gt;" style="rounded=1;whiteSpace=wrap;html=1;fillColor=none;strokeColor=#000000;align=center;" parent="1" vertex="1">
                    <mxGeometry x="577" y="591" width="60" height="30" as="geometry"/>
                </mxCell>
                <mxCell id="140" style="edgeStyle=none;html=1;exitX=0.5;exitY=0;exitDx=0;exitDy=0;entryX=0.5;entryY=1;entryDx=0;entryDy=0;strokeColor=#000000;" parent="1" source="133" target="85" edge="1">
                    <mxGeometry relative="1" as="geometry">
                        <mxPoint x="700" y="555" as="targetPoint"/>
                    </mxGeometry>
                </mxCell>
                <mxCell id="133" value="&lt;font color=&quot;#000000&quot;&gt;&amp;nbsp; &amp;nbsp; CNN&lt;span style=&quot;white-space: pre&quot;&gt;&#9;&lt;/span&gt;&lt;/font&gt;" style="rounded=1;whiteSpace=wrap;html=1;fillColor=none;strokeColor=#000000;align=center;" parent="1" vertex="1">
                    <mxGeometry x="670" y="591" width="60" height="30" as="geometry"/>
                </mxCell>
                <mxCell id="248" style="edgeStyle=none;html=1;exitX=0.5;exitY=0;exitDx=0;exitDy=0;fontColor=#000000;strokeColor=#000000;" parent="1" source="216" edge="1">
                    <mxGeometry relative="1" as="geometry">
                        <mxPoint x="140" y="200" as="targetPoint"/>
                    </mxGeometry>
                </mxCell>
                <mxCell id="216" value="&lt;font color=&quot;#000000&quot;&gt;FC&lt;/font&gt;" style="rounded=1;whiteSpace=wrap;html=1;fillColor=none;strokeColor=#000000;align=center;direction=east;" parent="1" vertex="1">
                    <mxGeometry x="110" y="240" width="60" height="30" as="geometry"/>
                </mxCell>
                <mxCell id="247" style="edgeStyle=none;html=1;exitX=0.5;exitY=0;exitDx=0;exitDy=0;fontColor=#000000;strokeColor=#000000;" parent="1" source="218" edge="1">
                    <mxGeometry relative="1" as="geometry">
                        <mxPoint x="233" y="200" as="targetPoint"/>
                    </mxGeometry>
                </mxCell>
                <mxCell id="218" value="&lt;font color=&quot;#000000&quot;&gt;&amp;nbsp; &amp;nbsp; FC&lt;span style=&quot;white-space: pre&quot;&gt;&#9;&lt;/span&gt;&lt;/font&gt;" style="rounded=1;whiteSpace=wrap;html=1;fillColor=none;strokeColor=#000000;align=center;direction=east;" parent="1" vertex="1">
                    <mxGeometry x="203" y="240" width="60" height="30" as="geometry"/>
                </mxCell>
                <mxCell id="246" style="edgeStyle=none;html=1;exitX=0.5;exitY=0;exitDx=0;exitDy=0;fontColor=#000000;strokeColor=#000000;" parent="1" source="220" edge="1">
                    <mxGeometry relative="1" as="geometry">
                        <mxPoint x="327" y="200" as="targetPoint"/>
                    </mxGeometry>
                </mxCell>
                <mxCell id="220" value="&lt;font color=&quot;#000000&quot;&gt;&amp;nbsp; &amp;nbsp; FC&lt;span style=&quot;white-space: pre&quot;&gt;&#9;&lt;/span&gt;&lt;/font&gt;" style="rounded=1;whiteSpace=wrap;html=1;fillColor=none;strokeColor=#000000;align=center;direction=east;" parent="1" vertex="1">
                    <mxGeometry x="297" y="240" width="60" height="30" as="geometry"/>
                </mxCell>
                <mxCell id="241" style="edgeStyle=none;html=1;exitX=0.5;exitY=0;exitDx=0;exitDy=0;fontColor=#000000;strokeColor=#000000;" parent="1" source="222" edge="1">
                    <mxGeometry relative="1" as="geometry">
                        <mxPoint x="420" y="200" as="targetPoint"/>
                    </mxGeometry>
                </mxCell>
                <mxCell id="222" value="&lt;font color=&quot;#000000&quot;&gt;&amp;nbsp; &amp;nbsp; FC&lt;span style=&quot;white-space: pre&quot;&gt;&#9;&lt;/span&gt;&lt;/font&gt;" style="rounded=1;whiteSpace=wrap;html=1;fillColor=none;strokeColor=#000000;align=center;direction=east;" parent="1" vertex="1">
                    <mxGeometry x="390" y="240" width="60" height="30" as="geometry"/>
                </mxCell>
                <mxCell id="242" style="edgeStyle=none;html=1;exitX=0.5;exitY=0;exitDx=0;exitDy=0;fontColor=#000000;strokeColor=#000000;" parent="1" source="224" edge="1">
                    <mxGeometry relative="1" as="geometry">
                        <mxPoint x="513" y="200" as="targetPoint"/>
                    </mxGeometry>
                </mxCell>
                <mxCell id="224" value="&lt;font color=&quot;#000000&quot;&gt;&amp;nbsp; &amp;nbsp; FC&lt;span style=&quot;white-space: pre&quot;&gt;&#9;&lt;/span&gt;&lt;/font&gt;" style="rounded=1;whiteSpace=wrap;html=1;fillColor=none;strokeColor=#000000;align=center;direction=east;" parent="1" vertex="1">
                    <mxGeometry x="483" y="240" width="60" height="30" as="geometry"/>
                </mxCell>
                <mxCell id="243" style="edgeStyle=none;html=1;exitX=0.5;exitY=0;exitDx=0;exitDy=0;fontColor=#000000;strokeColor=#000000;" parent="1" source="226" edge="1">
                    <mxGeometry relative="1" as="geometry">
                        <mxPoint x="607" y="200" as="targetPoint"/>
                    </mxGeometry>
                </mxCell>
                <mxCell id="226" value="&lt;font color=&quot;#000000&quot;&gt;&amp;nbsp; &amp;nbsp; FC&lt;span style=&quot;white-space: pre&quot;&gt;&#9;&lt;/span&gt;&lt;/font&gt;" style="rounded=1;whiteSpace=wrap;html=1;fillColor=none;strokeColor=#000000;align=center;direction=east;" parent="1" vertex="1">
                    <mxGeometry x="577" y="240" width="60" height="30" as="geometry"/>
                </mxCell>
                <mxCell id="245" style="edgeStyle=none;html=1;exitX=0.5;exitY=0;exitDx=0;exitDy=0;fontColor=#000000;strokeColor=#000000;" parent="1" source="228" edge="1">
                    <mxGeometry relative="1" as="geometry">
                        <mxPoint x="700" y="200" as="targetPoint"/>
                    </mxGeometry>
                </mxCell>
                <mxCell id="228" value="&lt;font color=&quot;#000000&quot;&gt;&amp;nbsp; &amp;nbsp; FC&lt;span style=&quot;white-space: pre&quot;&gt;&#9;&lt;/span&gt;&lt;/font&gt;" style="rounded=1;whiteSpace=wrap;html=1;fillColor=none;strokeColor=#000000;align=center;direction=east;" parent="1" vertex="1">
                    <mxGeometry x="670" y="240" width="60" height="30" as="geometry"/>
                </mxCell>
                <mxCell id="229" style="edgeStyle=none;html=1;exitX=0.5;exitY=0;exitDx=0;exitDy=0;entryX=0.5;entryY=1;entryDx=0;entryDy=0;strokeColor=#000000;" parent="1" source="196" target="216" edge="1">
                    <mxGeometry relative="1" as="geometry"/>
                </mxCell>
                <mxCell id="230" style="edgeStyle=none;html=1;exitX=0.5;exitY=0;exitDx=0;exitDy=0;entryX=0.5;entryY=1;entryDx=0;entryDy=0;strokeColor=#000000;" parent="1" source="198" target="218" edge="1">
                    <mxGeometry relative="1" as="geometry"/>
                </mxCell>
                <mxCell id="231" style="edgeStyle=none;html=1;exitX=0.5;exitY=0;exitDx=0;exitDy=0;entryX=0.5;entryY=1;entryDx=0;entryDy=0;strokeColor=#000000;" parent="1" source="200" target="220" edge="1">
                    <mxGeometry relative="1" as="geometry"/>
                </mxCell>
                <mxCell id="232" style="edgeStyle=none;html=1;exitX=0.5;exitY=0;exitDx=0;exitDy=0;entryX=0.5;entryY=1;entryDx=0;entryDy=0;strokeColor=#000000;" parent="1" source="202" target="222" edge="1">
                    <mxGeometry relative="1" as="geometry"/>
                </mxCell>
                <mxCell id="233" style="edgeStyle=none;html=1;exitX=0.5;exitY=0;exitDx=0;exitDy=0;entryX=0.5;entryY=1;entryDx=0;entryDy=0;strokeColor=#000000;" parent="1" source="204" target="224" edge="1">
                    <mxGeometry relative="1" as="geometry"/>
                </mxCell>
                <mxCell id="234" style="edgeStyle=none;html=1;exitX=0.5;exitY=0;exitDx=0;exitDy=0;strokeColor=#000000;" parent="1" source="206" edge="1">
                    <mxGeometry relative="1" as="geometry">
                        <mxPoint x="607" y="280" as="targetPoint"/>
                    </mxGeometry>
                </mxCell>
                <mxCell id="235" style="edgeStyle=none;html=1;exitX=0.5;exitY=0;exitDx=0;exitDy=0;entryX=0.5;entryY=1;entryDx=0;entryDy=0;strokeColor=#000000;" parent="1" source="208" target="228" edge="1">
                    <mxGeometry relative="1" as="geometry"/>
                </mxCell>
                <mxCell id="236" value="&lt;font color=&quot;#000000&quot;&gt;CTC/CRF解码器&lt;/font&gt;" style="rounded=1;whiteSpace=wrap;html=1;fillColor=none;strokeColor=#000000;align=center;direction=east;" parent="1" vertex="1">
                    <mxGeometry x="110" y="160" width="610" height="30" as="geometry"/>
                </mxCell>
                <mxCell id="73" value="&lt;font color=&quot;#000000&quot;&gt;&amp;nbsp; &amp;nbsp; LSTM&lt;span style=&quot;white-space: pre&quot;&gt;&#9;&lt;/span&gt;&lt;/font&gt;" style="rounded=1;whiteSpace=wrap;html=1;fillColor=none;strokeColor=#000000;align=center;direction=east;container=0;" parent="1" vertex="1">
                    <mxGeometry x="110" y="531" width="60" height="30" as="geometry"/>
                </mxCell>
                <mxCell id="148" style="edgeStyle=none;html=1;exitX=0;exitY=0.5;exitDx=0;exitDy=0;entryX=1;entryY=0.5;entryDx=0;entryDy=0;strokeColor=#000000;" parent="1" source="75" target="73" edge="1">
                    <mxGeometry relative="1" as="geometry"/>
                </mxCell>
                <mxCell id="75" value="&lt;font color=&quot;#000000&quot;&gt;&amp;nbsp; &amp;nbsp; LSTM&lt;span style=&quot;white-space: pre&quot;&gt;&#9;&lt;/span&gt;&lt;/font&gt;" style="rounded=1;whiteSpace=wrap;html=1;fillColor=none;strokeColor=#000000;align=center;direction=east;container=0;" parent="1" vertex="1">
                    <mxGeometry x="203" y="531" width="60" height="30" as="geometry"/>
                </mxCell>
                <mxCell id="147" style="edgeStyle=none;html=1;exitX=0;exitY=0.5;exitDx=0;exitDy=0;entryX=1;entryY=0.5;entryDx=0;entryDy=0;strokeColor=#000000;" parent="1" source="77" target="75" edge="1">
                    <mxGeometry relative="1" as="geometry"/>
                </mxCell>
                <mxCell id="77" value="&lt;font color=&quot;#000000&quot;&gt;&amp;nbsp; &amp;nbsp; LSTM&lt;span style=&quot;white-space: pre&quot;&gt;&#9;&lt;/span&gt;&lt;/font&gt;" style="rounded=1;whiteSpace=wrap;html=1;fillColor=none;strokeColor=#000000;align=center;direction=east;container=0;" parent="1" vertex="1">
                    <mxGeometry x="297" y="531" width="60" height="30" as="geometry"/>
                </mxCell>
                <mxCell id="145" style="edgeStyle=none;html=1;exitX=0;exitY=0.5;exitDx=0;exitDy=0;entryX=1;entryY=0.5;entryDx=0;entryDy=0;strokeColor=#000000;" parent="1" source="79" target="77" edge="1">
                    <mxGeometry relative="1" as="geometry"/>
                </mxCell>
                <mxCell id="79" value="&lt;font color=&quot;#000000&quot;&gt;&amp;nbsp; &amp;nbsp; LSTM&lt;span style=&quot;white-space: pre&quot;&gt;&#9;&lt;/span&gt;&lt;/font&gt;" style="rounded=1;whiteSpace=wrap;html=1;fillColor=none;strokeColor=#000000;align=center;direction=east;container=0;" parent="1" vertex="1">
                    <mxGeometry x="390" y="531" width="60" height="30" as="geometry"/>
                </mxCell>
                <mxCell id="143" style="edgeStyle=none;html=1;exitX=0;exitY=0.5;exitDx=0;exitDy=0;entryX=1;entryY=0.5;entryDx=0;entryDy=0;strokeColor=#000000;" parent="1" source="81" target="79" edge="1">
                    <mxGeometry relative="1" as="geometry"/>
                </mxCell>
                <mxCell id="81" value="&lt;font color=&quot;#000000&quot;&gt;&amp;nbsp; &amp;nbsp; LSTM&lt;span style=&quot;white-space: pre&quot;&gt;&#9;&lt;/span&gt;&lt;/font&gt;" style="rounded=1;whiteSpace=wrap;html=1;fillColor=none;strokeColor=#000000;align=center;direction=east;container=0;" parent="1" vertex="1">
                    <mxGeometry x="483" y="531" width="60" height="30" as="geometry"/>
                </mxCell>
                <mxCell id="142" style="edgeStyle=none;html=1;exitX=0;exitY=0.5;exitDx=0;exitDy=0;entryX=1;entryY=0.5;entryDx=0;entryDy=0;strokeColor=#000000;" parent="1" source="83" target="81" edge="1">
                    <mxGeometry relative="1" as="geometry"/>
                </mxCell>
                <mxCell id="83" value="&lt;font color=&quot;#000000&quot;&gt;&amp;nbsp; &amp;nbsp; LSTM&lt;span style=&quot;white-space: pre&quot;&gt;&#9;&lt;/span&gt;&lt;/font&gt;" style="rounded=1;whiteSpace=wrap;html=1;fillColor=none;strokeColor=#000000;align=center;direction=east;container=0;" parent="1" vertex="1">
                    <mxGeometry x="577" y="531" width="60" height="30" as="geometry"/>
                </mxCell>
                <mxCell id="141" style="edgeStyle=none;html=1;exitX=0;exitY=0.5;exitDx=0;exitDy=0;entryX=1;entryY=0.5;entryDx=0;entryDy=0;strokeColor=#000000;" parent="1" source="85" target="83" edge="1">
                    <mxGeometry relative="1" as="geometry"/>
                </mxCell>
                <mxCell id="85" value="&lt;font color=&quot;#000000&quot;&gt;&amp;nbsp; &amp;nbsp; LSTM&lt;span style=&quot;white-space: pre&quot;&gt;&#9;&lt;/span&gt;&lt;/font&gt;" style="rounded=1;whiteSpace=wrap;html=1;fillColor=none;strokeColor=#000000;align=center;direction=east;container=0;" parent="1" vertex="1">
                    <mxGeometry x="670" y="531" width="60" height="30" as="geometry"/>
                </mxCell>
                <mxCell id="189" style="edgeStyle=none;html=1;exitX=0.5;exitY=0;exitDx=0;exitDy=0;entryX=0.5;entryY=1;entryDx=0;entryDy=0;strokeColor=#000000;" parent="1" source="86" target="156" edge="1">
                    <mxGeometry relative="1" as="geometry"/>
                </mxCell>
                <mxCell id="86" value="&lt;font color=&quot;#000000&quot;&gt;&amp;nbsp; &amp;nbsp; LSTM&lt;span style=&quot;white-space: pre&quot;&gt;&#9;&lt;/span&gt;&lt;/font&gt;" style="rounded=1;whiteSpace=wrap;html=1;fillColor=none;strokeColor=#000000;align=center;direction=east;container=0;" parent="1" vertex="1">
                    <mxGeometry x="110" y="471" width="60" height="30" as="geometry"/>
                </mxCell>
                <mxCell id="72" value="" style="edgeStyle=none;html=1;fontColor=#000000;strokeColor=#000000;" parent="1" source="73" target="86" edge="1">
                    <mxGeometry relative="1" as="geometry"/>
                </mxCell>
                <mxCell id="190" style="edgeStyle=none;html=1;exitX=0.5;exitY=0;exitDx=0;exitDy=0;entryX=0.5;entryY=1;entryDx=0;entryDy=0;strokeColor=#000000;" parent="1" source="87" target="159" edge="1">
                    <mxGeometry relative="1" as="geometry"/>
                </mxCell>
                <mxCell id="87" value="&lt;font color=&quot;#000000&quot;&gt;&amp;nbsp; &amp;nbsp; LSTM&lt;span style=&quot;white-space: pre&quot;&gt;&#9;&lt;/span&gt;&lt;/font&gt;" style="rounded=1;whiteSpace=wrap;html=1;fillColor=none;strokeColor=#000000;align=center;direction=east;container=0;" parent="1" vertex="1">
                    <mxGeometry x="203" y="471" width="60" height="30" as="geometry"/>
                </mxCell>
                <mxCell id="74" value="" style="edgeStyle=none;html=1;fontColor=#000000;strokeColor=#000000;" parent="1" source="75" target="87" edge="1">
                    <mxGeometry relative="1" as="geometry"/>
                </mxCell>
                <mxCell id="149" style="edgeStyle=none;html=1;exitX=1;exitY=0.5;exitDx=0;exitDy=0;entryX=0;entryY=0.5;entryDx=0;entryDy=0;strokeColor=#000000;" parent="1" source="86" target="87" edge="1">
                    <mxGeometry relative="1" as="geometry"/>
                </mxCell>
                <mxCell id="191" style="edgeStyle=none;html=1;exitX=0.5;exitY=0;exitDx=0;exitDy=0;entryX=0.5;entryY=1;entryDx=0;entryDy=0;strokeColor=#000000;" parent="1" source="88" target="162" edge="1">
                    <mxGeometry relative="1" as="geometry"/>
                </mxCell>
                <mxCell id="88" value="&lt;font color=&quot;#000000&quot;&gt;&amp;nbsp; &amp;nbsp; LSTM&lt;span style=&quot;white-space: pre&quot;&gt;&#9;&lt;/span&gt;&lt;/font&gt;" style="rounded=1;whiteSpace=wrap;html=1;fillColor=none;strokeColor=#000000;align=center;direction=east;container=0;" parent="1" vertex="1">
                    <mxGeometry x="297" y="471" width="60" height="30" as="geometry"/>
                </mxCell>
                <mxCell id="76" value="" style="edgeStyle=none;html=1;fontColor=#000000;strokeColor=#000000;" parent="1" source="77" target="88" edge="1">
                    <mxGeometry relative="1" as="geometry"/>
                </mxCell>
                <mxCell id="150" style="edgeStyle=none;html=1;exitX=1;exitY=0.5;exitDx=0;exitDy=0;entryX=0;entryY=0.5;entryDx=0;entryDy=0;strokeColor=#000000;" parent="1" source="87" target="88" edge="1">
                    <mxGeometry relative="1" as="geometry"/>
                </mxCell>
                <mxCell id="192" style="edgeStyle=none;html=1;exitX=0.5;exitY=0;exitDx=0;exitDy=0;entryX=0.5;entryY=1;entryDx=0;entryDy=0;strokeColor=#000000;" parent="1" source="89" target="165" edge="1">
                    <mxGeometry relative="1" as="geometry"/>
                </mxCell>
                <mxCell id="89" value="&lt;font color=&quot;#000000&quot;&gt;&amp;nbsp; &amp;nbsp; LSTM&lt;span style=&quot;white-space: pre&quot;&gt;&#9;&lt;/span&gt;&lt;/font&gt;" style="rounded=1;whiteSpace=wrap;html=1;fillColor=none;strokeColor=#000000;align=center;direction=east;container=0;" parent="1" vertex="1">
                    <mxGeometry x="390" y="471" width="60" height="30" as="geometry"/>
                </mxCell>
                <mxCell id="78" value="" style="edgeStyle=none;html=1;fontColor=#000000;strokeColor=#000000;" parent="1" source="79" target="89" edge="1">
                    <mxGeometry relative="1" as="geometry"/>
                </mxCell>
                <mxCell id="151" style="edgeStyle=none;html=1;exitX=1;exitY=0.5;exitDx=0;exitDy=0;entryX=0;entryY=0.5;entryDx=0;entryDy=0;strokeColor=#000000;" parent="1" source="88" target="89" edge="1">
                    <mxGeometry relative="1" as="geometry"/>
                </mxCell>
                <mxCell id="193" style="edgeStyle=none;html=1;exitX=0.5;exitY=0;exitDx=0;exitDy=0;entryX=0.5;entryY=1;entryDx=0;entryDy=0;strokeColor=#000000;" parent="1" source="90" target="168" edge="1">
                    <mxGeometry relative="1" as="geometry"/>
                </mxCell>
                <mxCell id="90" value="&lt;font color=&quot;#000000&quot;&gt;&amp;nbsp; &amp;nbsp; LSTM&lt;span style=&quot;white-space: pre&quot;&gt;&#9;&lt;/span&gt;&lt;/font&gt;" style="rounded=1;whiteSpace=wrap;html=1;fillColor=none;strokeColor=#000000;align=center;direction=east;container=0;" parent="1" vertex="1">
                    <mxGeometry x="483" y="471" width="60" height="30" as="geometry"/>
                </mxCell>
                <mxCell id="80" value="" style="edgeStyle=none;html=1;fontColor=#000000;strokeColor=#000000;" parent="1" source="81" target="90" edge="1">
                    <mxGeometry relative="1" as="geometry"/>
                </mxCell>
                <mxCell id="152" style="edgeStyle=none;html=1;exitX=1;exitY=0.5;exitDx=0;exitDy=0;entryX=0;entryY=0.5;entryDx=0;entryDy=0;strokeColor=#000000;" parent="1" source="89" target="90" edge="1">
                    <mxGeometry relative="1" as="geometry"/>
                </mxCell>
                <mxCell id="194" style="edgeStyle=none;html=1;exitX=0.5;exitY=0;exitDx=0;exitDy=0;entryX=0.5;entryY=1;entryDx=0;entryDy=0;strokeColor=#000000;" parent="1" source="91" target="171" edge="1">
                    <mxGeometry relative="1" as="geometry"/>
                </mxCell>
                <mxCell id="91" value="&lt;font color=&quot;#000000&quot;&gt;&amp;nbsp; &amp;nbsp; LSTM&lt;span style=&quot;white-space: pre&quot;&gt;&#9;&lt;/span&gt;&lt;/font&gt;" style="rounded=1;whiteSpace=wrap;html=1;fillColor=none;strokeColor=#000000;align=center;direction=east;container=0;" parent="1" vertex="1">
                    <mxGeometry x="577" y="471" width="60" height="30" as="geometry"/>
                </mxCell>
                <mxCell id="82" value="" style="edgeStyle=none;html=1;fontColor=#000000;strokeColor=#000000;" parent="1" source="83" target="91" edge="1">
                    <mxGeometry relative="1" as="geometry"/>
                </mxCell>
                <mxCell id="153" style="edgeStyle=none;html=1;exitX=1;exitY=0.5;exitDx=0;exitDy=0;entryX=0;entryY=0.5;entryDx=0;entryDy=0;strokeColor=#000000;" parent="1" source="90" target="91" edge="1">
                    <mxGeometry relative="1" as="geometry"/>
                </mxCell>
                <mxCell id="195" style="edgeStyle=none;html=1;exitX=0.5;exitY=0;exitDx=0;exitDy=0;entryX=0.5;entryY=1;entryDx=0;entryDy=0;strokeColor=#000000;" parent="1" source="92" target="174" edge="1">
                    <mxGeometry relative="1" as="geometry"/>
                </mxCell>
                <mxCell id="92" value="&lt;font color=&quot;#000000&quot;&gt;&amp;nbsp; &amp;nbsp; LSTM&lt;span style=&quot;white-space: pre&quot;&gt;&#9;&lt;/span&gt;&lt;/font&gt;" style="rounded=1;whiteSpace=wrap;html=1;fillColor=none;strokeColor=#000000;align=center;direction=east;container=0;" parent="1" vertex="1">
                    <mxGeometry x="670" y="471" width="60" height="30" as="geometry"/>
                </mxCell>
                <mxCell id="84" value="" style="edgeStyle=none;html=1;fontColor=#000000;strokeColor=#000000;" parent="1" source="85" target="92" edge="1">
                    <mxGeometry relative="1" as="geometry"/>
                </mxCell>
                <mxCell id="154" style="edgeStyle=none;html=1;exitX=1;exitY=0.5;exitDx=0;exitDy=0;entryX=0;entryY=0.5;entryDx=0;entryDy=0;strokeColor=#000000;" parent="1" source="91" target="92" edge="1">
                    <mxGeometry relative="1" as="geometry"/>
                </mxCell>
                <mxCell id="156" value="&lt;font color=&quot;#000000&quot;&gt;&amp;nbsp; &amp;nbsp; LSTM&lt;span style=&quot;white-space: pre&quot;&gt;&#9;&lt;/span&gt;&lt;/font&gt;" style="rounded=1;whiteSpace=wrap;html=1;fillColor=none;strokeColor=#000000;align=center;direction=east;container=0;" parent="1" vertex="1">
                    <mxGeometry x="110" y="412" width="60" height="30" as="geometry"/>
                </mxCell>
                <mxCell id="158" style="edgeStyle=none;html=1;exitX=0;exitY=0.5;exitDx=0;exitDy=0;entryX=1;entryY=0.5;entryDx=0;entryDy=0;strokeColor=#000000;" parent="1" source="159" target="156" edge="1">
                    <mxGeometry relative="1" as="geometry"/>
                </mxCell>
                <mxCell id="159" value="&lt;font color=&quot;#000000&quot;&gt;&amp;nbsp; &amp;nbsp; LSTM&lt;span style=&quot;white-space: pre&quot;&gt;&#9;&lt;/span&gt;&lt;/font&gt;" style="rounded=1;whiteSpace=wrap;html=1;fillColor=none;strokeColor=#000000;align=center;direction=east;container=0;" parent="1" vertex="1">
                    <mxGeometry x="203" y="412" width="60" height="30" as="geometry"/>
                </mxCell>
                <mxCell id="161" style="edgeStyle=none;html=1;exitX=0;exitY=0.5;exitDx=0;exitDy=0;entryX=1;entryY=0.5;entryDx=0;entryDy=0;strokeColor=#000000;" parent="1" source="162" target="159" edge="1">
                    <mxGeometry relative="1" as="geometry"/>
                </mxCell>
                <mxCell id="162" value="&lt;font color=&quot;#000000&quot;&gt;&amp;nbsp; &amp;nbsp; LSTM&lt;span style=&quot;white-space: pre&quot;&gt;&#9;&lt;/span&gt;&lt;/font&gt;" style="rounded=1;whiteSpace=wrap;html=1;fillColor=none;strokeColor=#000000;align=center;direction=east;container=0;" parent="1" vertex="1">
                    <mxGeometry x="297" y="412" width="60" height="30" as="geometry"/>
                </mxCell>
                <mxCell id="164" style="edgeStyle=none;html=1;exitX=0;exitY=0.5;exitDx=0;exitDy=0;entryX=1;entryY=0.5;entryDx=0;entryDy=0;strokeColor=#000000;" parent="1" source="165" target="162" edge="1">
                    <mxGeometry relative="1" as="geometry"/>
                </mxCell>
                <mxCell id="165" value="&lt;font color=&quot;#000000&quot;&gt;&amp;nbsp; &amp;nbsp; LSTM&lt;span style=&quot;white-space: pre&quot;&gt;&#9;&lt;/span&gt;&lt;/font&gt;" style="rounded=1;whiteSpace=wrap;html=1;fillColor=none;strokeColor=#000000;align=center;direction=east;container=0;" parent="1" vertex="1">
                    <mxGeometry x="390" y="412" width="60" height="30" as="geometry"/>
                </mxCell>
                <mxCell id="167" style="edgeStyle=none;html=1;exitX=0;exitY=0.5;exitDx=0;exitDy=0;entryX=1;entryY=0.5;entryDx=0;entryDy=0;strokeColor=#000000;" parent="1" source="168" target="165" edge="1">
                    <mxGeometry relative="1" as="geometry"/>
                </mxCell>
                <mxCell id="168" value="&lt;font color=&quot;#000000&quot;&gt;&amp;nbsp; &amp;nbsp; LSTM&lt;span style=&quot;white-space: pre&quot;&gt;&#9;&lt;/span&gt;&lt;/font&gt;" style="rounded=1;whiteSpace=wrap;html=1;fillColor=none;strokeColor=#000000;align=center;direction=east;container=0;" parent="1" vertex="1">
                    <mxGeometry x="483" y="412" width="60" height="30" as="geometry"/>
                </mxCell>
                <mxCell id="170" style="edgeStyle=none;html=1;exitX=0;exitY=0.5;exitDx=0;exitDy=0;entryX=1;entryY=0.5;entryDx=0;entryDy=0;strokeColor=#000000;" parent="1" source="171" target="168" edge="1">
                    <mxGeometry relative="1" as="geometry"/>
                </mxCell>
                <mxCell id="171" value="&lt;font color=&quot;#000000&quot;&gt;&amp;nbsp; &amp;nbsp; LSTM&lt;span style=&quot;white-space: pre&quot;&gt;&#9;&lt;/span&gt;&lt;/font&gt;" style="rounded=1;whiteSpace=wrap;html=1;fillColor=none;strokeColor=#000000;align=center;direction=east;container=0;" parent="1" vertex="1">
                    <mxGeometry x="577" y="412" width="60" height="30" as="geometry"/>
                </mxCell>
                <mxCell id="173" style="edgeStyle=none;html=1;exitX=0;exitY=0.5;exitDx=0;exitDy=0;entryX=1;entryY=0.5;entryDx=0;entryDy=0;strokeColor=#000000;" parent="1" source="174" target="171" edge="1">
                    <mxGeometry relative="1" as="geometry"/>
                </mxCell>
                <mxCell id="174" value="&lt;font color=&quot;#000000&quot;&gt;&amp;nbsp; &amp;nbsp; LSTM&lt;span style=&quot;white-space: pre&quot;&gt;&#9;&lt;/span&gt;&lt;/font&gt;" style="rounded=1;whiteSpace=wrap;html=1;fillColor=none;strokeColor=#000000;align=center;direction=east;container=0;" parent="1" vertex="1">
                    <mxGeometry x="670" y="412" width="60" height="30" as="geometry"/>
                </mxCell>
                <mxCell id="209" style="edgeStyle=none;html=1;exitX=0.5;exitY=0;exitDx=0;exitDy=0;entryX=0.5;entryY=1;entryDx=0;entryDy=0;strokeColor=#000000;" parent="1" source="176" target="196" edge="1">
                    <mxGeometry relative="1" as="geometry"/>
                </mxCell>
                <mxCell id="176" value="&lt;font color=&quot;#000000&quot;&gt;&amp;nbsp; &amp;nbsp; LSTM&lt;span style=&quot;white-space: pre&quot;&gt;&#9;&lt;/span&gt;&lt;/font&gt;" style="rounded=1;whiteSpace=wrap;html=1;fillColor=none;strokeColor=#000000;align=center;direction=east;container=0;" parent="1" vertex="1">
                    <mxGeometry x="110" y="352" width="60" height="30" as="geometry"/>
                </mxCell>
                <mxCell id="155" value="" style="edgeStyle=none;html=1;fontColor=#000000;strokeColor=#000000;" parent="1" source="156" target="176" edge="1">
                    <mxGeometry relative="1" as="geometry"/>
                </mxCell>
                <mxCell id="210" style="edgeStyle=none;html=1;exitX=0.5;exitY=0;exitDx=0;exitDy=0;entryX=0.5;entryY=1;entryDx=0;entryDy=0;strokeColor=#000000;" parent="1" source="178" target="198" edge="1">
                    <mxGeometry relative="1" as="geometry"/>
                </mxCell>
                <mxCell id="178" value="&lt;font color=&quot;#000000&quot;&gt;&amp;nbsp; &amp;nbsp; LSTM&lt;span style=&quot;white-space: pre&quot;&gt;&#9;&lt;/span&gt;&lt;/font&gt;" style="rounded=1;whiteSpace=wrap;html=1;fillColor=none;strokeColor=#000000;align=center;direction=east;container=0;" parent="1" vertex="1">
                    <mxGeometry x="203" y="352" width="60" height="30" as="geometry"/>
                </mxCell>
                <mxCell id="157" value="" style="edgeStyle=none;html=1;fontColor=#000000;strokeColor=#000000;" parent="1" source="159" target="178" edge="1">
                    <mxGeometry relative="1" as="geometry"/>
                </mxCell>
                <mxCell id="175" style="edgeStyle=none;html=1;exitX=1;exitY=0.5;exitDx=0;exitDy=0;entryX=0;entryY=0.5;entryDx=0;entryDy=0;strokeColor=#000000;" parent="1" source="176" target="178" edge="1">
                    <mxGeometry relative="1" as="geometry"/>
                </mxCell>
                <mxCell id="211" style="edgeStyle=none;html=1;exitX=0.5;exitY=0;exitDx=0;exitDy=0;entryX=0.5;entryY=1;entryDx=0;entryDy=0;strokeColor=#000000;" parent="1" source="180" target="200" edge="1">
                    <mxGeometry relative="1" as="geometry"/>
                </mxCell>
                <mxCell id="180" value="&lt;font color=&quot;#000000&quot;&gt;&amp;nbsp; &amp;nbsp; LSTM&lt;span style=&quot;white-space: pre&quot;&gt;&#9;&lt;/span&gt;&lt;/font&gt;" style="rounded=1;whiteSpace=wrap;html=1;fillColor=none;strokeColor=#000000;align=center;direction=east;container=0;" parent="1" vertex="1">
                    <mxGeometry x="297" y="352" width="60" height="30" as="geometry"/>
                </mxCell>
                <mxCell id="160" value="" style="edgeStyle=none;html=1;fontColor=#000000;strokeColor=#000000;" parent="1" source="162" target="180" edge="1">
                    <mxGeometry relative="1" as="geometry"/>
                </mxCell>
                <mxCell id="177" style="edgeStyle=none;html=1;exitX=1;exitY=0.5;exitDx=0;exitDy=0;entryX=0;entryY=0.5;entryDx=0;entryDy=0;strokeColor=#000000;" parent="1" source="178" target="180" edge="1">
                    <mxGeometry relative="1" as="geometry"/>
                </mxCell>
                <mxCell id="212" style="edgeStyle=none;html=1;exitX=0.5;exitY=0;exitDx=0;exitDy=0;entryX=0.5;entryY=1;entryDx=0;entryDy=0;strokeColor=#000000;" parent="1" source="182" target="202" edge="1">
                    <mxGeometry relative="1" as="geometry"/>
                </mxCell>
                <mxCell id="182" value="&lt;font color=&quot;#000000&quot;&gt;&amp;nbsp; &amp;nbsp; LSTM&lt;span style=&quot;white-space: pre&quot;&gt;&#9;&lt;/span&gt;&lt;/font&gt;" style="rounded=1;whiteSpace=wrap;html=1;fillColor=none;strokeColor=#000000;align=center;direction=east;container=0;" parent="1" vertex="1">
                    <mxGeometry x="390" y="352" width="60" height="30" as="geometry"/>
                </mxCell>
                <mxCell id="163" value="" style="edgeStyle=none;html=1;fontColor=#000000;strokeColor=#000000;" parent="1" source="165" target="182" edge="1">
                    <mxGeometry relative="1" as="geometry"/>
                </mxCell>
                <mxCell id="179" style="edgeStyle=none;html=1;exitX=1;exitY=0.5;exitDx=0;exitDy=0;entryX=0;entryY=0.5;entryDx=0;entryDy=0;strokeColor=#000000;" parent="1" source="180" target="182" edge="1">
                    <mxGeometry relative="1" as="geometry"/>
                </mxCell>
                <mxCell id="213" style="edgeStyle=none;html=1;exitX=0.5;exitY=0;exitDx=0;exitDy=0;entryX=0.5;entryY=1;entryDx=0;entryDy=0;strokeColor=#000000;" parent="1" source="184" target="204" edge="1">
                    <mxGeometry relative="1" as="geometry"/>
                </mxCell>
                <mxCell id="184" value="&lt;font color=&quot;#000000&quot;&gt;&amp;nbsp; &amp;nbsp; LSTM&lt;span style=&quot;white-space: pre&quot;&gt;&#9;&lt;/span&gt;&lt;/font&gt;" style="rounded=1;whiteSpace=wrap;html=1;fillColor=none;strokeColor=#000000;align=center;direction=east;container=0;" parent="1" vertex="1">
                    <mxGeometry x="483" y="352" width="60" height="30" as="geometry"/>
                </mxCell>
                <mxCell id="166" value="" style="edgeStyle=none;html=1;fontColor=#000000;strokeColor=#000000;" parent="1" source="168" target="184" edge="1">
                    <mxGeometry relative="1" as="geometry"/>
                </mxCell>
                <mxCell id="181" style="edgeStyle=none;html=1;exitX=1;exitY=0.5;exitDx=0;exitDy=0;entryX=0;entryY=0.5;entryDx=0;entryDy=0;strokeColor=#000000;" parent="1" source="182" target="184" edge="1">
                    <mxGeometry relative="1" as="geometry"/>
                </mxCell>
                <mxCell id="214" style="edgeStyle=none;html=1;exitX=0.5;exitY=0;exitDx=0;exitDy=0;entryX=0.5;entryY=1;entryDx=0;entryDy=0;strokeColor=#000000;" parent="1" source="186" target="206" edge="1">
                    <mxGeometry relative="1" as="geometry"/>
                </mxCell>
                <mxCell id="186" value="&lt;font color=&quot;#000000&quot;&gt;&amp;nbsp; &amp;nbsp; LSTM&lt;span style=&quot;white-space: pre&quot;&gt;&#9;&lt;/span&gt;&lt;/font&gt;" style="rounded=1;whiteSpace=wrap;html=1;fillColor=none;strokeColor=#000000;align=center;direction=east;container=0;" parent="1" vertex="1">
                    <mxGeometry x="577" y="352" width="60" height="30" as="geometry"/>
                </mxCell>
                <mxCell id="169" value="" style="edgeStyle=none;html=1;fontColor=#000000;strokeColor=#000000;" parent="1" source="171" target="186" edge="1">
                    <mxGeometry relative="1" as="geometry"/>
                </mxCell>
                <mxCell id="183" style="edgeStyle=none;html=1;exitX=1;exitY=0.5;exitDx=0;exitDy=0;entryX=0;entryY=0.5;entryDx=0;entryDy=0;strokeColor=#000000;" parent="1" source="184" target="186" edge="1">
                    <mxGeometry relative="1" as="geometry"/>
                </mxCell>
                <mxCell id="215" style="edgeStyle=none;html=1;exitX=0.5;exitY=0;exitDx=0;exitDy=0;entryX=0.5;entryY=1;entryDx=0;entryDy=0;strokeColor=#000000;" parent="1" source="187" target="208" edge="1">
                    <mxGeometry relative="1" as="geometry"/>
                </mxCell>
                <mxCell id="187" value="&lt;font color=&quot;#000000&quot;&gt;&amp;nbsp; &amp;nbsp; LSTM&lt;span style=&quot;white-space: pre&quot;&gt;&#9;&lt;/span&gt;&lt;/font&gt;" style="rounded=1;whiteSpace=wrap;html=1;fillColor=none;strokeColor=#000000;align=center;direction=east;container=0;" parent="1" vertex="1">
                    <mxGeometry x="670" y="352" width="60" height="30" as="geometry"/>
                </mxCell>
                <mxCell id="172" value="" style="edgeStyle=none;html=1;fontColor=#000000;strokeColor=#000000;" parent="1" source="174" target="187" edge="1">
                    <mxGeometry relative="1" as="geometry"/>
                </mxCell>
                <mxCell id="185" style="edgeStyle=none;html=1;exitX=1;exitY=0.5;exitDx=0;exitDy=0;entryX=0;entryY=0.5;entryDx=0;entryDy=0;strokeColor=#000000;" parent="1" source="186" target="187" edge="1">
                    <mxGeometry relative="1" as="geometry"/>
                </mxCell>
                <mxCell id="196" value="&lt;font color=&quot;#000000&quot;&gt;&amp;nbsp; &amp;nbsp; LSTM&lt;span style=&quot;white-space: pre&quot;&gt;&#9;&lt;/span&gt;&lt;/font&gt;" style="rounded=1;whiteSpace=wrap;html=1;fillColor=none;strokeColor=#000000;align=center;direction=east;container=0;" parent="1" vertex="1">
                    <mxGeometry x="110" y="296" width="60" height="30" as="geometry"/>
                </mxCell>
                <mxCell id="197" style="edgeStyle=none;html=1;exitX=0;exitY=0.5;exitDx=0;exitDy=0;entryX=1;entryY=0.5;entryDx=0;entryDy=0;strokeColor=#000000;" parent="1" source="198" target="196" edge="1">
                    <mxGeometry relative="1" as="geometry"/>
                </mxCell>
                <mxCell id="198" value="&lt;font color=&quot;#000000&quot;&gt;&amp;nbsp; &amp;nbsp; LSTM&lt;span style=&quot;white-space: pre&quot;&gt;&#9;&lt;/span&gt;&lt;/font&gt;" style="rounded=1;whiteSpace=wrap;html=1;fillColor=none;strokeColor=#000000;align=center;direction=east;container=0;" parent="1" vertex="1">
                    <mxGeometry x="203" y="296" width="60" height="30" as="geometry"/>
                </mxCell>
                <mxCell id="199" style="edgeStyle=none;html=1;exitX=0;exitY=0.5;exitDx=0;exitDy=0;entryX=1;entryY=0.5;entryDx=0;entryDy=0;strokeColor=#000000;" parent="1" source="200" target="198" edge="1">
                    <mxGeometry relative="1" as="geometry"/>
                </mxCell>
                <mxCell id="200" value="&lt;font color=&quot;#000000&quot;&gt;&amp;nbsp; &amp;nbsp; LSTM&lt;span style=&quot;white-space: pre&quot;&gt;&#9;&lt;/span&gt;&lt;/font&gt;" style="rounded=1;whiteSpace=wrap;html=1;fillColor=none;strokeColor=#000000;align=center;direction=east;container=0;" parent="1" vertex="1">
                    <mxGeometry x="297" y="296" width="60" height="30" as="geometry"/>
                </mxCell>
                <mxCell id="201" style="edgeStyle=none;html=1;exitX=0;exitY=0.5;exitDx=0;exitDy=0;entryX=1;entryY=0.5;entryDx=0;entryDy=0;strokeColor=#000000;" parent="1" source="202" target="200" edge="1">
                    <mxGeometry relative="1" as="geometry"/>
                </mxCell>
                <mxCell id="202" value="&lt;font color=&quot;#000000&quot;&gt;&amp;nbsp; &amp;nbsp; LSTM&lt;span style=&quot;white-space: pre&quot;&gt;&#9;&lt;/span&gt;&lt;/font&gt;" style="rounded=1;whiteSpace=wrap;html=1;fillColor=none;strokeColor=#000000;align=center;direction=east;container=0;" parent="1" vertex="1">
                    <mxGeometry x="390" y="296" width="60" height="30" as="geometry"/>
                </mxCell>
                <mxCell id="203" style="edgeStyle=none;html=1;exitX=0;exitY=0.5;exitDx=0;exitDy=0;entryX=1;entryY=0.5;entryDx=0;entryDy=0;strokeColor=#000000;" parent="1" source="204" target="202" edge="1">
                    <mxGeometry relative="1" as="geometry"/>
                </mxCell>
                <mxCell id="204" value="&lt;font color=&quot;#000000&quot;&gt;&amp;nbsp; &amp;nbsp; LSTM&lt;span style=&quot;white-space: pre&quot;&gt;&#9;&lt;/span&gt;&lt;/font&gt;" style="rounded=1;whiteSpace=wrap;html=1;fillColor=none;strokeColor=#000000;align=center;direction=east;container=0;" parent="1" vertex="1">
                    <mxGeometry x="483" y="296" width="60" height="30" as="geometry"/>
                </mxCell>
                <mxCell id="205" style="edgeStyle=none;html=1;exitX=0;exitY=0.5;exitDx=0;exitDy=0;entryX=1;entryY=0.5;entryDx=0;entryDy=0;strokeColor=#000000;" parent="1" source="206" target="204" edge="1">
                    <mxGeometry relative="1" as="geometry"/>
                </mxCell>
                <mxCell id="206" value="&lt;font color=&quot;#000000&quot;&gt;&amp;nbsp; &amp;nbsp; LSTM&lt;span style=&quot;white-space: pre&quot;&gt;&#9;&lt;/span&gt;&lt;/font&gt;" style="rounded=1;whiteSpace=wrap;html=1;fillColor=none;strokeColor=#000000;align=center;direction=east;container=0;" parent="1" vertex="1">
                    <mxGeometry x="577" y="296" width="60" height="30" as="geometry"/>
                </mxCell>
                <mxCell id="207" style="edgeStyle=none;html=1;exitX=0;exitY=0.5;exitDx=0;exitDy=0;entryX=1;entryY=0.5;entryDx=0;entryDy=0;strokeColor=#000000;" parent="1" source="208" target="206" edge="1">
                    <mxGeometry relative="1" as="geometry"/>
                </mxCell>
                <mxCell id="208" value="&lt;font color=&quot;#000000&quot;&gt;&amp;nbsp; &amp;nbsp; LSTM&lt;span style=&quot;white-space: pre&quot;&gt;&#9;&lt;/span&gt;&lt;/font&gt;" style="rounded=1;whiteSpace=wrap;html=1;fillColor=none;strokeColor=#000000;align=center;direction=east;container=0;" parent="1" vertex="1">
                    <mxGeometry x="670" y="296" width="60" height="30" as="geometry"/>
                </mxCell>
                <mxCell id="237" value="" style="shape=curlyBracket;whiteSpace=wrap;html=1;rounded=1;strokeColor=#000000;" parent="1" vertex="1">
                    <mxGeometry x="70" y="605" width="20" height="120" as="geometry"/>
                </mxCell>
                <mxCell id="238" value="" style="shape=curlyBracket;whiteSpace=wrap;html=1;rounded=1;strokeColor=#000000;" parent="1" vertex="1">
                    <mxGeometry x="70" y="310" width="20" height="240" as="geometry"/>
                </mxCell>
                <mxCell id="239" value="&lt;font color=&quot;#000000&quot;&gt;CNN&lt;/font&gt;" style="text;html=1;align=center;verticalAlign=middle;resizable=0;points=[];autosize=1;strokeColor=none;fillColor=none;" parent="1" vertex="1">
                    <mxGeometry x="10" y="655" width="40" height="20" as="geometry"/>
                </mxCell>
                <mxCell id="240" value="RNN" style="text;html=1;align=center;verticalAlign=middle;resizable=0;points=[];autosize=1;strokeColor=none;fillColor=none;fontColor=#000000;" parent="1" vertex="1">
                    <mxGeometry x="10" y="417" width="40" height="20" as="geometry"/>
                </mxCell>
            </root>
        </mxGraphModel>
    </diagram>
</mxfile>